<?xml version="1.0" encoding="UTF-8"?>
<svg xmlns="http://www.w3.org/2000/svg" xmlns:xlink="http://www.w3.org/1999/xlink" width="10pt" height="10pt" viewBox="0 0 10 10" version="1.1">
<g id="surface1">
<path style=" stroke:none;fill-rule:nonzero;fill:rgb(100%,100%,100%);fill-opacity:1;" d="M 3.792969 3.910156 C -0.535156 8.234375 -0.542969 15.324219 3.785156 19.652344 C 7.449219 23.316406 13.101562 23.875 17.375 21.328125 L 25.011719 28.75 C 26.058594 29.773438 27.71875 29.734375 28.722656 28.667969 C 29.726562 27.601562 29.699219 25.921875 28.648438 24.902344 L 21.128906 17.617188 C 23.765625 13.332031 23.230469 7.613281 19.527344 3.910156 C 15.199219 -0.417969 8.121094 -0.417969 3.792969 3.910156 Z M 6.96875 7.082031 C 9.578125 4.472656 13.742188 4.472656 16.351562 7.082031 C 18.960938 9.691406 18.960938 13.855469 16.351562 16.46875 C 13.742188 19.078125 9.578125 19.078125 6.96875 16.46875 C 4.359375 13.855469 4.359375 9.691406 6.96875 7.082031 Z M 6.96875 7.082031 "/>
</g>
</svg>
